<svg width="113" height="113" viewBox="0 0 113 113" fill="none" xmlns="http://www.w3.org/2000/svg">
<path d="M77.6875 44.2585L35.3125 19.8223" stroke="black" stroke-width="2" stroke-linecap="round" stroke-linejoin="round"/>
<path d="M98.875 75.3333V37.6666C98.8733 36.0153 98.4374 34.3934 97.611 32.9638C96.7846 31.5341 95.5968 30.3469 94.1667 29.5212L61.2083 10.6879C59.7768 9.86138 58.153 9.42627 56.5 9.42627C54.847 9.42627 53.2232 9.86138 51.7917 10.6879L18.8333 29.5212C17.4032 30.3469 16.2154 31.5341 15.389 32.9638C14.5626 34.3934 14.1267 36.0153 14.125 37.6666V75.3333C14.1267 76.9846 14.5626 78.6065 15.389 80.0361C16.2154 81.4658 17.4032 82.653 18.8333 83.4787L51.7917 102.312C53.2232 103.139 54.847 103.574 56.5 103.574C58.153 103.574 59.7768 103.139 61.2083 102.312L94.1667 83.4787C95.5968 82.653 96.7846 81.4658 97.611 80.0361C98.4374 78.6065 98.8733 76.9846 98.875 75.3333Z" stroke="black" stroke-width="2" stroke-linecap="round" stroke-linejoin="round"/>
<path d="M15.3962 32.77L56.5 56.5471L97.6037 32.77" stroke="black" stroke-width="2" stroke-linecap="round" stroke-linejoin="round"/>
<path d="M56.5 103.96V56.5" stroke="black" stroke-width="2" stroke-linecap="round" stroke-linejoin="round"/>
</svg>
