<svg width="113" height="111" viewBox="0 0 113 111" fill="none" xmlns="http://www.w3.org/2000/svg">
<path d="M75.3333 13.875H4.70833V74H75.3333V13.875Z" stroke="black" stroke-width="2" stroke-linecap="round" stroke-linejoin="round"/>
<path d="M75.3333 37H94.1667L108.292 50.875V74H75.3333V37Z" stroke="black" stroke-width="2" stroke-linecap="round" stroke-linejoin="round"/>
<path d="M25.8958 97.125C32.3967 97.125 37.6667 91.9483 37.6667 85.5625C37.6667 79.1767 32.3967 74 25.8958 74C19.395 74 14.125 79.1767 14.125 85.5625C14.125 91.9483 19.395 97.125 25.8958 97.125Z" stroke="black" stroke-width="2" stroke-linecap="round" stroke-linejoin="round"/>
<path d="M87.1042 97.125C93.605 97.125 98.875 91.9483 98.875 85.5625C98.875 79.1767 93.605 74 87.1042 74C80.6033 74 75.3333 79.1767 75.3333 85.5625C75.3333 91.9483 80.6033 97.125 87.1042 97.125Z" stroke="black" stroke-width="2" stroke-linecap="round" stroke-linejoin="round"/>
</svg>
