<svg width="122" height="122" viewBox="0 0 122 122" fill="none" xmlns="http://www.w3.org/2000/svg">
<path d="M86.4167 106.75V96.5833C86.4167 91.1906 84.2745 86.0187 80.4612 82.2055C76.648 78.3923 71.4761 76.25 66.0834 76.25H25.4167C20.024 76.25 14.8521 78.3923 11.0389 82.2055C7.22563 86.0187 5.08337 91.1906 5.08337 96.5833V106.75" stroke="black" stroke-width="2" stroke-linecap="round" stroke-linejoin="round"/>
<path d="M45.75 55.9167C56.9798 55.9167 66.0833 46.8131 66.0833 35.5833C66.0833 24.3535 56.9798 15.25 45.75 15.25C34.5202 15.25 25.4166 24.3535 25.4166 35.5833C25.4166 46.8131 34.5202 55.9167 45.75 55.9167Z" stroke="black" stroke-width="2" stroke-linecap="round" stroke-linejoin="round"/>
<path d="M116.917 106.75V96.5831C116.913 92.0779 115.414 87.7014 112.654 84.1407C109.893 80.5801 106.029 78.0369 101.667 76.9106" stroke="black" stroke-width="2" stroke-linecap="round" stroke-linejoin="round"/>
<path d="M81.3334 15.9106C85.7071 17.0305 89.5838 19.5742 92.3522 23.1407C95.1206 26.7072 96.6232 31.0937 96.6232 35.6086C96.6232 40.1234 95.1206 44.5099 92.3522 48.0764C89.5838 51.6429 85.7071 54.1866 81.3334 55.3065" stroke="black" stroke-width="2" stroke-linecap="round" stroke-linejoin="round"/>
</svg>
