<svg width="42" height="45" viewBox="0 0 42 45" fill="none" xmlns="http://www.w3.org/2000/svg">
<path d="M21 0L11.6667 7.5L21 15V9.375C30.0043 9.375 37.3333 15.2625 37.3333 22.5C37.3333 24.15 36.9349 25.7252 36.2396 27.1802L39.776 30.0183C41.1877 27.7514 42 25.2038 42 22.5C42 13.1962 32.5803 5.625 21 5.625V0ZM2.22396 14.9817C0.812292 17.2486 0 19.7962 0 22.5C0 31.8037 9.41967 39.375 21 39.375V45L30.3333 37.5L21 30V35.625C11.9957 35.625 4.66667 29.7375 4.66667 22.5C4.66667 20.85 5.06508 19.2748 5.76042 17.8198L2.22396 14.9817Z" fill="#434343"/>
</svg>
